<svg xmlns="http://www.w3.org/2000/svg" height="32" width="27" viewBox="0 0 17.28 20.48" xmlns:v="https://vecta.io/nano"><path d="M16.811 11.222c0-4.343-3.363-7.886-7.617-8.174V1.884h-1.11v1.165C3.831 3.338.468 6.88.468 11.222a8.329 8.227 0 0 0 3.154 6.464l-1.092 1.86 1.386.933 1.355-1.791c1.027.468 2.165.735 3.367.735a8.019 7.921 0 0 0 3.287-.696l1.327 1.752 1.388-.933-1.06-1.803a8.329 8.227 0 0 0 3.231-6.522zm-1.903 0a6.28 6.28 0 0 1-1.836 4.45 6.23 6.23 0 0 1-4.432 1.843 6.23 6.23 0 0 1-4.432-1.843 6.27 6.27 0 0 1-1.836-4.45c0-1.741.701-3.307 1.836-4.448a6.22 6.22 0 0 1 4.432-1.843 6.23 6.23 0 0 1 4.432 1.843c1.137 1.14 1.835 2.708 1.836 4.448zm-2.686-.493l-2.996-.064-.119-4.096a.467.469 0 0 0-.467-.468.467.469 0 0 0-.467.468l-.136 4.69a.607.6 0 0 0 .603.605l3.582-.076a.53.53 0 1 0 0-1.06zM1.682.456a3.39 3.39 0 0 0-1.227 4.62l5.831-3.39C5.352.072 3.292-.48 1.682.456zm13.917 0c-1.611-.936-3.672-.384-4.603 1.231l5.831 3.39a3.39 3.39 0 0 0-1.227-4.62z"/></svg>