<svg xmlns="http://www.w3.org/2000/svg" height="24" width="20" viewBox="0 0 12.8 15.36" xmlns:v="https://vecta.io/nano"><path d="M12.453 8.416c0-3.257-2.491-5.914-5.642-6.13v-.873h-.822v.874C2.838 2.503.347 5.16.347 8.416a6.17 6.17 0 0 0 2.336 4.848l-.809 1.395 1.027.7 1.004-1.343c.761.351 1.604.551 2.494.551a5.94 5.94 0 0 0 2.435-.522l.983 1.314 1.028-.7-.785-1.352a6.17 6.17 0 0 0 2.393-4.891zm-1.41 0a4.652 4.71 0 0 1-1.36 3.337c-.842.855-1.999 1.382-3.283 1.382s-2.441-.527-3.283-1.382-1.36-2.031-1.36-3.337.519-2.48 1.36-3.336S5.116 3.698 6.4 3.698s2.441.527 3.283 1.382 1.359 2.031 1.36 3.336zm-1.99-.37l-2.219-.048-.088-3.072a.346.352 0 0 0-.346-.351.346.352 0 0 0-.346.351l-.101 3.517a.45.45 0 0 0 .447.454l2.653-.057c.216 0 .391-.178.391-.398s-.175-.397-.391-.397zM1.246.342c-1.193.702-1.6 2.253-.909 3.465l4.319-2.542C3.965.054 2.439-.36 1.246.342zm10.309 0c-1.193-.702-2.72-.288-3.41.923l4.319 2.542c.691-1.212.284-2.763-.909-3.465z"/></svg>