<svg xmlns="http://www.w3.org/2000/svg" width="192.001" height="56.218" fill="none" xmlns:v="https://vecta.io/nano"><g clip-path="url(#A)" transform="matrix(1.586777 0 0 1.586777 .000417 -2.34363)"><g fill="#304659"><path d="M0 4.492h9.809c1.967-.106 3.908.504 5.483 1.723a5.4 5.4 0 0 1 1.524 1.938c.355.759.532 1.594.519 2.436 0 2.627-1.49 4.406-4.471 5.335 1.407.159 2.704.857 3.634 1.956.891 1.055 1.372 2.412 1.351 3.811.031.846-.132 1.687-.475 2.456a5.36 5.36 0 0 1-1.502 1.968c-1.319 1.094-3.158 1.641-5.516 1.641H0zm5.5 4.309v5.037h3.602a2.81 2.81 0 0 0 1.914-.629 2.32 2.32 0 0 0 .57-.851 2.38 2.38 0 0 0 .154-1.022 2.43 2.43 0 0 0-.155-1.028 2.37 2.37 0 0 0-.569-.86 2.77 2.77 0 0 0-1.914-.645zm0 14.648h4.149c.685.024 1.354-.225 1.865-.696.251-.246.447-.546.575-.878a2.54 2.54 0 0 0 .165-1.045 2.71 2.71 0 0 0-.159-1.052c-.122-.336-.309-.643-.549-.902-.241-.244-.528-.434-.844-.56s-.652-.183-.99-.17H5.499L5.5 23.45zM24.704 7.177a3.26 3.26 0 0 1-2.002 1.011c-.761.087-1.528-.1-2.169-.531s-1.117-1.078-1.347-1.831a3.5 3.5 0 0 1 .091-2.296 3.37 3.37 0 0 1 1.486-1.713c.673-.376 1.453-.499 2.204-.348s1.429.566 1.916 1.175a3.47 3.47 0 0 1 .754 2.162 3.29 3.29 0 0 1-.226 1.286 3.21 3.21 0 0 1-.706 1.085zm-5.017 20.581V9.265h5.5v18.493zm53.013-2.42a10.86 10.86 0 0 1-2.38-6.803 10.86 10.86 0 0 1 2.38-6.802c.723-.851 1.616-1.53 2.618-1.99a7.41 7.41 0 0 1 3.187-.678 5.94 5.94 0 0 1 2.954.617 6.14 6.14 0 0 1 2.305 2V9.266h5.5V27.76h-5.5v-2.685c-.576.914-1.368 1.661-2.303 2.171a6.07 6.07 0 0 1-3.037.745 7.33 7.33 0 0 1-3.144-.682c-.988-.458-1.868-1.13-2.581-1.971zm9.875-3.447a4.53 4.53 0 0 0 .937-1.563 4.62 4.62 0 0 0 .253-1.818c.039-.615-.047-1.232-.252-1.811s-.524-1.108-.938-1.553c-.357-.374-.783-.671-1.253-.873a3.73 3.73 0 0 0-1.484-.304 3.72 3.72 0 0 0-1.482.313 3.82 3.82 0 0 0-1.248.88 4.53 4.53 0 0 0-.937 1.563 4.62 4.62 0 0 0-.253 1.818c-.039.615.047 1.232.252 1.811s.524 1.108.938 1.553a3.82 3.82 0 0 0 1.254.873 3.74 3.74 0 0 0 1.484.304 3.72 3.72 0 0 0 1.482-.313 3.81 3.81 0 0 0 1.248-.881zm17.122 1.062h1.962v4.805h-2.798c-1.667.108-3.319-.377-4.679-1.376-1.105-.916-1.657-2.49-1.656-4.722v-7.688h-1.674V9.265h1.672V4.759h5.5v4.507h3.606v4.706h-3.602v7.688c-.002.861.555 1.292 1.67 1.293zm4.74 2.385c-1.539-1.913-2.38-4.318-2.38-6.803s.841-4.89 2.38-6.802a7.61 7.61 0 0 1 2.618-1.99 7.4 7.4 0 0 1 3.187-.678 5.94 5.94 0 0 1 2.954.617 6.15 6.15 0 0 1 2.305 2V9.266h5.5V27.76h-5.498v-2.685a6.29 6.29 0 0 1-2.303 2.171 6.07 6.07 0 0 1-3.037.745c-1.083.009-2.156-.224-3.144-.681a7.54 7.54 0 0 1-2.582-1.971zm9.874-3.447a4.5 4.5 0 0 0 .937-1.563 4.62 4.62 0 0 0 .253-1.818 4.58 4.58 0 0 0-.251-1.811 4.47 4.47 0 0 0-.939-1.553 3.82 3.82 0 0 0-1.253-.873c-.47-.202-.974-.305-1.484-.304s-1.013.108-1.482.313a3.82 3.82 0 0 0-1.248.88 4.5 4.5 0 0 0-.937 1.563 4.62 4.62 0 0 0-.253 1.818c-.039.615.046 1.232.251 1.811a4.47 4.47 0 0 0 .939 1.553c.357.374.783.671 1.253.873a3.73 3.73 0 0 0 2.966-.009 3.82 3.82 0 0 0 1.248-.881z"/></g><path d="M36.701 21.444c-.041 0-.083.007-.124.007a2.75 2.75 0 0 1-1.17-.253 2.83 2.83 0 0 1-.964-.73c-.267-.311-.466-.678-.584-1.075a2.98 2.98 0 0 1-.099-1.228 2.97 2.97 0 0 1 .403-1.16 2.87 2.87 0 0 1 .833-.884c.336-.23.716-.383 1.114-.449s.805-.043 1.194.066l2.457.672.026-2.619c.017-1.682.577-3.309 1.59-4.627a7.34 7.34 0 0 1 4.008-2.653c1.584-.402 3.254-.249 4.745.435s2.719 1.858 3.491 3.34l.821 1.569 1.618-.63a4.99 4.99 0 0 1 2.145-.33c.73.049 1.441.258 2.085.613a5.17 5.17 0 0 1 1.653 1.447 5.35 5.35 0 0 1 .925 2.021 5.44 5.44 0 0 1 .031 2.234c-.144.739-.44 1.437-.868 2.048a5.18 5.18 0 0 1-1.612 1.495 5.02 5.02 0 0 1-2.067.674l-.271.026-21.379-.008z" fill="#e36327"/><g fill="#304659"><path d="M36.902 23.488v-.017l-.323.017a4.68 4.68 0 0 1-1.982-.437 4.81 4.81 0 0 1-1.63-1.242 4.99 4.99 0 0 1-.987-1.824 5.09 5.09 0 0 1-.168-2.082 5.04 5.04 0 0 1 .681-1.967 4.88 4.88 0 0 1 1.409-1.502 4.72 4.72 0 0 1 1.885-.768 4.66 4.66 0 0 1 2.025.102 9.83 9.83 0 0 1 .735-3.642 6.38 6.38 0 0 0-3.707-1.059 7.4 7.4 0 0 0-3.187.678c-1.002.461-1.896 1.14-2.618 1.99a10.86 10.86 0 0 0-2.38 6.802 10.86 10.86 0 0 0 2.38 6.803c.713.841 1.593 1.513 2.581 1.97s2.061.69 3.144.681a6.07 6.07 0 0 0 3.037-.745c.934-.51 1.727-1.258 2.303-2.171v2.585a4.65 4.65 0 0 1-.997 3.296 3.37 3.37 0 0 1-1.148.793c-.432.18-.895.265-1.36.252-2.058 0-3.345-.696-3.86-2.089H27.33a6.96 6.96 0 0 0 .775 2.961 6.75 6.75 0 0 0 1.959 2.309c1.608 1.149 3.785 1.723 6.529 1.723a10.87 10.87 0 0 0 4.133-.73c1.097-.418 2.068-1.127 2.814-2.055 1.409-1.834 2.139-4.125 2.058-6.463v-4.17l-8.696.002zM66.389 7.723c-2.318-2.155-5.277-3.232-8.877-3.232h-7.944v.095a9.25 9.25 0 0 1 3.37 1.75c.996.813 1.821 1.827 2.424 2.98a6.91 6.91 0 0 1 2.972-.456 6.95 6.95 0 0 1 2.889.85c.893.492 1.674 1.176 2.29 2.005s1.052 1.784 1.28 2.801a7.54 7.54 0 0 1 .042 3.096 7.44 7.44 0 0 1-1.203 2.837 7.18 7.18 0 0 1-2.234 2.07c-.879.518-1.856.837-2.865.934v.034h-8.965v4.269h7.944c3.602 0 6.561-1.082 8.877-3.247a11.65 11.65 0 0 0 2.569-3.831c.597-1.442.905-2.994.905-4.562s-.308-3.12-.905-4.562a11.65 11.65 0 0 0-2.569-3.831v.001zm34.755 22.851a2.16 2.16 0 0 1 1.443.462 2.35 2.35 0 0 1 .75 1.204l-.755.155a1.83 1.83 0 0 0-.556-.856 1.34 1.34 0 0 0-.884-.315 1.39 1.39 0 0 0-.653.157 1.44 1.44 0 0 0-.511.447 2.71 2.71 0 0 0-.462 1.68 3.18 3.18 0 0 0 .413 1.725c.128.209.308.38.521.494s.452.168.691.156a1.48 1.48 0 0 0 1.053-.358c.128-.121.228-.269.295-.434a1.26 1.26 0 0 0 .091-.522h.755a1.85 1.85 0 0 1-.14.789 1.8 1.8 0 0 1-.46.648c-.466.377-1.051.566-1.643.531a2.01 2.01 0 0 1-.939-.204 2.08 2.08 0 0 1-.749-.62c-.456-.636-.684-1.416-.644-2.206-.046-.779.192-1.547.666-2.156a2.19 2.19 0 0 1 .773-.588c.297-.135.619-.199.943-.19zm3.518-.376h.702v6.234h-.702zm4.056 1.749a1.83 1.83 0 0 1 .78.139c.248.103.47.258.655.456a2.9 2.9 0 0 1 .546 1.697c0 .611-.192 1.207-.546 1.698a2.04 2.04 0 0 1-2.869 0c-.354-.491-.546-1.086-.546-1.698a2.9 2.9 0 0 1 .546-1.697 1.88 1.88 0 0 1 .655-.456c.247-.102.513-.15.779-.139zm1.27 2.293c.024-.434-.088-.863-.32-1.226a1.1 1.1 0 0 0-.414-.343 1.07 1.07 0 0 0-.523-.101 1.09 1.09 0 0 0-.526.102c-.165.077-.309.195-.42.342a2.02 2.02 0 0 0-.328 1.226 2.11 2.11 0 0 0 .311 1.226 1.08 1.08 0 0 0 .409.344 1.04 1.04 0 0 0 .519.1c.182.01.364-.025.53-.102s.312-.194.425-.341c.243-.358.362-.79.337-1.226zm5.01 1.321a1.5 1.5 0 0 1-.56.707 1.43 1.43 0 0 1-.852.245 1.63 1.63 0 0 1-1.16-.412 1.65 1.65 0 0 1-.352-.587c-.075-.219-.106-.453-.087-.685v-2.786h.702v2.727c0 .739.331 1.108.994 1.107.18.005.359-.034.522-.114a1.15 1.15 0 0 0 .415-.344c.25-.336.383-.748.378-1.172v-2.206h.702v4.384h-.702v-.866zm5.246-2.856v-2.508h.696v6.234h-.568l-.09-.733c-.119.256-.307.472-.541.623-.222.14-.478.213-.738.211-.258.004-.513-.052-.747-.162a1.73 1.73 0 0 1-.607-.478 2.49 2.49 0 0 1-.547-1.67c-.028-.601.164-1.191.538-1.652.168-.201.377-.361.612-.468s.49-.16.747-.154a1.32 1.32 0 0 1 .728.195 1.38 1.38 0 0 1 .517.563zm-1.208-.119c-.168-.001-.334.04-.484.118a1.09 1.09 0 0 0-.381.33 2.21 2.21 0 0 0-.351 1.202c.001.427.124.845.355 1.201a1.08 1.08 0 0 0 .374.331 1.04 1.04 0 0 0 .479.122c.156.003.312-.026.457-.084a1.17 1.17 0 0 0 .391-.259 1.26 1.26 0 0 0 .276-.421 1.31 1.31 0 0 0 .093-.499v-.717a1.34 1.34 0 0 0-.077-.522 1.32 1.32 0 0 0-.271-.448 1.17 1.17 0 0 0-.395-.268 1.14 1.14 0 0 0-.466-.085z"/></g></g><defs><clipPath id="A"><path fill="#fff" transform="translate(0 1.477)" d="M0 0h121v35.429H0z"/></clipPath></defs></svg>