<?xml version="1.0" encoding="UTF-8" standalone="no"?>
<svg
   id="Layer_1"
   data-name="Layer 1"
   viewBox="0 0 787.49541 226.98987"
   version="1.1"
   width="787.49542"
   height="226.98987"
   xmlns="http://www.w3.org/2000/svg"
   xmlns:svg="http://www.w3.org/2000/svg">
  <defs
     id="defs4">
    <style
       id="style2">.cls-1,.cls-2{fill:#ffffff;}.cls-1{fill-rule:evenodd;}.cls-2{stroke:#ffffff;stroke-miterlimit:10;stroke-width:3px;}</style>
  </defs>
  <g
     id="g931"
     transform="translate(-80.792284,139.427)">
    <g
       id="g892"
       transform="translate(425.86095,-131.5385)">
      <ellipse
         style="fill:#3651a5;fill-opacity:1;stroke:none;stroke-width:0.209887;stroke-opacity:1"
         id="path2387"
         cx="48.679062"
         cy="61.825001"
         rx="69.867996"
         ry="69.713501" />
      <g
         id="g2402"
         transform="translate(-13.286486)">
        <path
           class="cls-1"
           d="M 59.55,79.61 A 17.79,17.79 0 1 0 41.76,61.82 17.78,17.78 0 0 0 59.55,79.61 Z"
           id="path6" />
        <path
           class="cls-1"
           d="m 112.28,61.82 a 52.75,52.75 0 0 1 -14.43,36.24 49,49 0 0 1 6.77,9.73 64.36,64.36 0 0 0 0,-91.93 49,49 0 0 1 -6.77,9.73 52.79,52.79 0 0 1 14.43,36.23 z M 83,44 82.48,43.34 82.24,43.04 v 0 C 82,42.75 81.75,42.46 81.49,42.18 L 81.43,42.1 v 0 l -0.26,-0.28 c -0.35,-0.38 -0.72,-0.75 -1.1,-1.12 l -0.06,-0.06 v 0 l -0.27,-0.25 c -0.51,-0.48 -1,-0.93 -1.57,-1.36 l 0.49,-0.26 a 48.39,48.39 0 0 0 10.53,-5.43 v 0.06 l 0.2,0.21 0.15,0.16 0.24,0.25 0.06,0.07 0.22,0.24 A 41.08,41.08 0 0 1 90,89.4 l -0.22,0.25 -0.06,0.06 -0.28,0.3 -0.09,0.09 -0.24,0.26 v 0 a 48.15,48.15 0 0 0 -11,-5.61 5.38,5.38 0 0 0 0.74,-0.69 l 0.49,-0.43 v 0 c 0.29,-0.26 0.57,-0.52 0.85,-0.8 h 0.06 v 0 l 0.26,-0.27 0.23,-0.23 0.06,-0.06 v 0 L 81.06,82 v 0 l 0.26,-0.28 0.22,-0.25 0.05,-0.06 v 0 L 81.9,81 v 0 l 0.25,-0.29 q 0.36,-0.43 0.72,-0.9 v -0.07 0 A 29.44,29.44 0 0 0 83,44 Z"
           id="path8" />
        <path
           class="cls-1"
           d="M 27.56,61.82 A 34.26,34.26 0 0 1 61.82,27.56 34.27,34.27 0 0 0 92.67,8.23 61.85,61.85 0 0 0 21.07,15.34 l -0.31,0.27 -0.28,0.25 -0.35,0.32 -0.21,0.19 -0.39,0.36 -0.2,0.2 -0.4,0.37 -0.15,0.16 -0.42,0.41 -0.19,0.18 -0.36,0.36 -0.25,0.26 -0.32,0.33 -0.21,0.22 -0.35,0.37 -0.21,0.22 -0.34,0.38 -0.18,0.19 -0.39,0.44 -0.12,0.13 a 61.81,61.81 0 0 0 -0.13,81.59 l 0.33,0.38 0.18,0.2 0.38,0.42 0.15,0.17 0.39,0.41 0.16,0.18 0.42,0.44 0.11,0.1 0.44,0.46 0.15,0.15 0.42,0.41 0.18,0.18 0.41,0.4 0.14,0.13 0.45,0.43 0.14,0.12 0.46,0.43 0.11,0.1 0.52,0.47 v 0 A 61.82,61.82 0 0 0 92.63,115.38 34.28,34.28 0 0 0 61.82,96.09 34.26,34.26 0 0 1 27.56,61.82 Z"
           id="path10" />
      </g>
    </g>
    <g
       id="g908"
       transform="translate(-70.504537,-25.167116)">
      <path
         class="cls-2"
         d="m 192.27,83.29 v 0.1 a 3,3 0 0 1 0.51,1 5.06,5.06 0 0 1 0.14,1.31 2.6,2.6 0 0 1 -1.36,2.34 h 0.05 a 22.76,22.76 0 0 1 -15,5.34 23.76,23.76 0 0 1 -23.81,-23.82 22.82,22.82 0 0 1 7,-16.83 23.77,23.77 0 0 1 24.75,-5.62 24.41,24.41 0 0 1 6.94,3.79 4.25,4.25 0 0 1 1,1.08 3.89,3.89 0 0 1 0.47,1.55 4,4 0 0 1 -0.23,1.26 5.55,5.55 0 0 1 -0.56,1.18 4,4 0 0 1 -0.94,0.79 3.12,3.12 0 0 1 -1.27,0.38 h -0.47 a 3.58,3.58 0 0 1 -2.11,-0.75 19,19 0 0 0 -5.06,-2.77 16.9,16.9 0 0 0 -22.45,15.94 16.88,16.88 0 0 0 16.92,16.87 16.4,16.4 0 0 0 10.69,-3.75 3.24,3.24 0 0 1 2,-0.79 h 0.47 a 3.54,3.54 0 0 1 2.39,1.4 z"
         id="path12"
         style="fill:#3651a5;fill-opacity:1;stroke:#3651a5;stroke-opacity:1" />
      <path
         class="cls-2"
         d="m 245,45.65 a 3.11,3.11 0 0 1 2.49,1.08 3.71,3.71 0 0 1 1,2.39 V 74 a 18.5,18.5 0 0 1 -5.86,13.78 20.05,20.05 0 0 1 -32.34,-6 18.43,18.43 0 0 1 -1.55,-7.41 V 49.12 a 3.14,3.14 0 0 1 1,-2.39 3.48,3.48 0 0 1 2.49,-1.08 3.25,3.25 0 0 1 2.58,1.13 2.57,2.57 0 0 1 0.09,0.28 3.13,3.13 0 0 1 0.52,1 4.86,4.86 0 0 1 0.14,1.13 v 24.87 a 11.87,11.87 0 0 0 3.84,8.86 12.78,12.78 0 0 0 9.14,3.75 13,13 0 0 0 4.92,-0.94 14.15,14.15 0 0 0 4.27,-2.81 12,12 0 0 0 3.75,-8.86 V 49.22 a 3.3,3.3 0 0 1 1,-2.4 3.46,3.46 0 0 1 2.44,-1.07 z"
         id="path14"
         style="fill:#3651a5;fill-opacity:1;stroke:#3651a5;stroke-opacity:1" />
      <path
         class="cls-2"
         d="m 282.82,45.7 a 19.92,19.92 0 0 1 19.74,19.78 3.61,3.61 0 0 1 -3.56,3.42 3.75,3.75 0 0 1 -2.39,-0.84 4.17,4.17 0 0 1 -1,-2.58 12.43,12.43 0 0 0 -3.8,-9.14 13,13 0 0 0 -4.12,-2.77 13.14,13.14 0 0 0 -4.92,-0.93 12.27,12.27 0 0 0 -9,3.7 12.47,12.47 0 0 0 -3.8,9.14 V 90.56 A 3.33,3.33 0 0 1 269,93 a 3.75,3.75 0 0 1 -2.44,1 3.33,3.33 0 0 1 -2.56,-1 4.47,4.47 0 0 1 -0.7,-1.13 3.31,3.31 0 0 1 -0.28,-1.36 v -25.4 a 18.77,18.77 0 0 1 5.9,-13.79 19.35,19.35 0 0 1 13.88,-5.71 z"
         id="path16"
         style="fill:#3651a5;fill-opacity:1;stroke:#3651a5;stroke-opacity:1" />
      <path
         class="cls-2"
         d="m 336.8,45.7 a 19.92,19.92 0 0 1 19.73,19.78 3.61,3.61 0 0 1 -3.53,3.42 3.73,3.73 0 0 1 -2.39,-0.84 4.12,4.12 0 0 1 -1,-2.58 12.46,12.46 0 0 0 -3.79,-9.14 12.44,12.44 0 0 0 -9.05,-3.7 12.31,12.31 0 0 0 -9.05,3.7 12.46,12.46 0 0 0 -3.79,9.14 v 25.08 a 3.34,3.34 0 0 1 -1,2.48 3.74,3.74 0 0 1 -2.43,1 3.35,3.35 0 0 1 -2.5,-1.04 4.78,4.78 0 0 1 -0.7,-1.13 3.31,3.31 0 0 1 -0.28,-1.36 v -25.4 a 18.74,18.74 0 0 1 5.91,-13.79 19.33,19.33 0 0 1 13.87,-5.71 z"
         id="path18"
         style="fill:#3651a5;fill-opacity:1;stroke:#3651a5;stroke-opacity:1" />
      <path
         class="cls-2"
         d="m 418.94,69.09 v 0.42 a 1.46,1.46 0 0 1 -0.14,0.56 h 0.05 a 3.15,3.15 0 0 1 -3.33,2.53 h -37.17 a 16.24,16.24 0 0 0 1.64,5 17.74,17.74 0 0 0 3.33,4.26 16.72,16.72 0 0 0 15.8,4.27 20.81,20.81 0 0 0 3.79,-1.41 v 0 a 17.33,17.33 0 0 0 3.32,-2.25 15.77,15.77 0 0 0 2.77,-3.16 3.88,3.88 0 0 1 2.39,-1.41 h 0.52 a 3.63,3.63 0 0 1 1.92,0.57 3.19,3.19 0 0 1 1.54,2.25 1.13,1.13 0 0 1 0.1,0.32 v 0.38 a 3.45,3.45 0 0 1 -0.66,2 23.62,23.62 0 0 1 -3.81,4.19 25.28,25.28 0 0 1 -4.74,3.23 23.75,23.75 0 0 1 -11.11,2.77 23.93,23.93 0 0 1 -23.95,-24 V 69 a 22.56,22.56 0 0 1 7.26,-16.55 24.07,24.07 0 0 1 33.43,0 24.4,24.4 0 0 1 5.25,7.6 22.57,22.57 0 0 1 1.86,9.09 v 0.09 z m -7.36,-3.33 a 16.78,16.78 0 0 0 -2,-4.64 18.41,18.41 0 0 0 -3.1,-3.94 16,16 0 0 0 -5.3,-3.18 17.24,17.24 0 0 0 -6.18,-1.18 16.76,16.76 0 0 0 -11.44,4.5 v 0 a 16.89,16.89 0 0 0 -5.06,8.58 h 33.05 z"
         id="path20"
         style="fill:#3651a5;fill-opacity:1;stroke:#3651a5;stroke-opacity:1" />
      <path
         class="cls-2"
         d="m 451.36,45.84 a 19.62,19.62 0 0 1 19.5,19.5 v 24.84 a 4,4 0 0 1 -0.19,1.36 2.48,2.48 0 0 1 -0.75,1 3.14,3.14 0 0 1 -2.53,1 3.2,3.2 0 0 1 -2.53,-1.08 3.57,3.57 0 0 1 -0.94,-2.35 V 65.34 a 12.05,12.05 0 0 0 -3.7,-9 12.52,12.52 0 0 0 -21.38,9 v 24.84 a 3,3 0 0 1 -1,2.39 3.28,3.28 0 0 1 -2.54,1 3.59,3.59 0 0 1 -1.26,-0.19 2.47,2.47 0 0 1 -1.08,-0.85 2.83,2.83 0 0 1 -1,-2.39 V 65.06 a 19.6,19.6 0 0 1 19.45,-19.22 z"
         id="path22"
         style="fill:#3651a5;fill-opacity:1;stroke:#3651a5;stroke-opacity:1" />
      <path
         class="cls-2"
         d="m 524,83.29 v 0.1 a 3,3 0 0 1 0.51,1 5.06,5.06 0 0 1 0.14,1.31 2.6,2.6 0 0 1 -1.36,2.34 h 0.05 a 22.76,22.76 0 0 1 -15,5.34 23.76,23.76 0 0 1 -23.86,-23.81 22.82,22.82 0 0 1 7,-16.83 23.77,23.77 0 0 1 24.75,-5.62 24.41,24.41 0 0 1 6.94,3.79 4.25,4.25 0 0 1 1,1.08 3.89,3.89 0 0 1 0.47,1.55 4,4 0 0 1 -0.23,1.26 5.55,5.55 0 0 1 -0.56,1.18 3.84,3.84 0 0 1 -0.94,0.79 3.12,3.12 0 0 1 -1.27,0.38 h -0.47 a 3.53,3.53 0 0 1 -2.1,-0.75 19.23,19.23 0 0 0 -5.07,-2.78 16.9,16.9 0 0 0 -22.45,15.94 16.88,16.88 0 0 0 16.92,16.87 16.4,16.4 0 0 0 10.69,-3.75 3.26,3.26 0 0 1 2,-0.79 h 0.47 a 3.54,3.54 0 0 1 2.39,1.4 z"
         id="path24"
         style="fill:#3651a5;fill-opacity:1;stroke:#3651a5;stroke-opacity:1" />
      <path
         class="cls-2"
         d="m 586,48.09 a 3.15,3.15 0 0 1 0.24,1.22 1.7,1.7 0 0 1 0,0.61 2.18,2.18 0 0 0 -0.14,0.33 0.71,0.71 0 0 0 -0.14,0.28 1,1 0 0 1 -0.14,0.28 l -29,58.45 a 3.83,3.83 0 0 1 -1.31,1.41 3.49,3.49 0 0 1 -3.38,0.23 3,3 0 0 1 -1.17,-0.93 5.75,5.75 0 0 1 -0.7,-1.27 7.39,7.39 0 0 1 -0.09,-1.13 3.78,3.78 0 0 1 0.37,-1.54 l 6.61,-13.27 -7.45,-16.83 -5.72,-12.79 -5.67,-12.75 v -0.28 a 3.47,3.47 0 0 1 -0.1,-0.71 v -0.56 a 0.16,0.16 0 0 1 0.05,-0.14 3.83,3.83 0 0 1 2.06,-2.63 4.39,4.39 0 0 1 1.41,-0.28 0.45,0.45 0 0 1 0.23,0.05 3.94,3.94 0 0 0 0.38,0.14 c 0,0.05 0.19,0.05 0.42,0.05 a 4.31,4.31 0 0 1 1.22,0.84 5.59,5.59 0 0 1 0.84,1.08 l 3.85,8.58 3.61,8.06 2.2,4.88 2.11,4.78 2.2,5 2.44,5.39 6.14,-12.43 6.23,-12.51 2.91,-5.91 3,-6.09 a 3.59,3.59 0 0 1 0.84,-1.13 4.13,4.13 0 0 1 1.27,-0.7 h -0.05 a 2.72,2.72 0 0 1 0.61,-0.19 3.39,3.39 0 0 1 0.61,0 5.63,5.63 0 0 1 0.8,0 3.08,3.08 0 0 1 0.84,0.28 4.22,4.22 0 0 1 1.74,2 v -0.05 z"
         id="path26"
         style="fill:#3651a5;fill-opacity:1;stroke:#3651a5;stroke-opacity:1" />
      <path
         class="cls-2"
         d="m 621.76,45.28 a 24.17,24.17 0 0 1 24.24,24.14 24.26,24.26 0 0 1 -24.19,24.19 23.53,23.53 0 0 1 -17,-7.13 23,23 0 0 1 -7.07,-17 v -39.3 a 4.47,4.47 0 0 1 0.14,-1.26 2.34,2.34 0 0 1 0.42,-0.85 4.35,4.35 0 0 1 3,-1.4 4.24,4.24 0 0 1 2.81,1.4 1.92,1.92 0 0 1 0.52,0.85 4.87,4.87 0 0 1 0.14,1.26 v 22.36 a 22.34,22.34 0 0 1 2.25,-2 26.76,26.76 0 0 1 2.39,-1.68 26,26 0 0 1 6,-2.53 22.73,22.73 0 0 1 6.37,-0.89 z m 0,41.48 a 16.7,16.7 0 0 0 12.24,-5 17.26,17.26 0 0 0 0,-24.24 16.9,16.9 0 0 0 -12.24,-5.06 17,17 0 0 0 -17,17.11 17,17 0 0 0 17,17.16 z"
         id="path28"
         style="fill:#3651a5;fill-opacity:1;stroke:#3651a5;stroke-opacity:1" />
      <path
         class="cls-2"
         d="m 707.85,69.09 v 0.42 a 1.67,1.67 0 0 1 -0.14,0.56 v 0 a 3.15,3.15 0 0 1 -3.33,2.53 h -37.13 a 16.51,16.51 0 0 0 1.64,5 17.74,17.74 0 0 0 3.33,4.26 16.33,16.33 0 0 0 11.72,4.78 16.17,16.17 0 0 0 4.08,-0.51 21.18,21.18 0 0 0 3.8,-1.41 h -0.05 a 17.4,17.4 0 0 0 3.33,-2.25 15.72,15.72 0 0 0 2.76,-3.09 3.88,3.88 0 0 1 2.39,-1.41 h 0.52 a 3.63,3.63 0 0 1 1.92,0.57 3.23,3.23 0 0 1 1.55,2.25 1.45,1.45 0 0 1 0.09,0.32 v 0.38 a 3.38,3.38 0 0 1 -0.66,2 23.24,23.24 0 0 1 -3.79,4.22 25.28,25.28 0 0 1 -4.74,3.23 23.75,23.75 0 0 1 -11.14,2.67 24,24 0 0 1 -23.95,-24 V 69 a 22.53,22.53 0 0 1 7.27,-16.55 24.06,24.06 0 0 1 33.42,0 24.23,24.23 0 0 1 5.26,7.55 22.41,22.41 0 0 1 1.92,9.14 v 0.09 z m -7.36,-3.33 a 16.81,16.81 0 0 0 -2,-4.64 18.41,18.41 0 0 0 -3.1,-3.94 16,16 0 0 0 -5.31,-3.18 17.24,17.24 0 0 0 -6.19,-1.13 16.71,16.71 0 0 0 -11.43,4.5 v 0 a 16.84,16.84 0 0 0 -5.07,8.58 h 33.05 z"
         id="path30"
         style="fill:#3651a5;fill-opacity:1;stroke:#3651a5;stroke-opacity:1" />
      <path
         class="cls-2"
         d="m 768.24,90.14 a 3.45,3.45 0 0 1 -3.42,3.47 3.81,3.81 0 0 1 -2.58,-0.94 3.74,3.74 0 0 1 -0.93,-2.53 v -3.61 c -0.66,0.61 -1.41,1.26 -2.25,1.92 -0.84,0.66 -1.6,1.17 -2.25,1.59 a 23.76,23.76 0 0 1 -5.91,2.68 23.94,23.94 0 0 1 -30.42,-23 23.12,23.12 0 0 1 7,-16.88 23.94,23.94 0 0 1 33.89,0 23.13,23.13 0 0 1 7,16.88 V 90.23 Z M 756.43,81.7 a 16.28,16.28 0 0 0 5,-12 16.76,16.76 0 0 0 -5,-12.1 16.41,16.41 0 0 0 -12,-4.92 16.2,16.2 0 0 0 -12,4.92 16.63,16.63 0 0 0 -5,12.05 17,17 0 0 0 17,17 16.26,16.26 0 0 0 12,-4.95 z"
         id="path32"
         style="fill:#3651a5;fill-opacity:1;stroke:#3651a5;stroke-opacity:1" />
      <path
         class="cls-2"
         d="m 821.28,83.29 v 0.1 a 3,3 0 0 1 0.51,1 5.06,5.06 0 0 1 0.14,1.31 2.6,2.6 0 0 1 -1.36,2.34 v 0 a 22.76,22.76 0 0 1 -15,5.34 23.76,23.76 0 0 1 -23.86,-23.81 22.82,22.82 0 0 1 7,-16.83 23.77,23.77 0 0 1 24.75,-5.62 24.41,24.41 0 0 1 6.94,3.79 4.5,4.5 0 0 1 1,1.08 4.07,4.07 0 0 1 0.46,1.55 4,4 0 0 1 -0.23,1.26 5.55,5.55 0 0 1 -0.56,1.18 3.84,3.84 0 0 1 -0.94,0.79 3.12,3.12 0 0 1 -1.27,0.38 h -0.46 a 3.54,3.54 0 0 1 -2.11,-0.75 19.23,19.23 0 0 0 -5.07,-2.77 16.9,16.9 0 0 0 -22.45,15.94 16.88,16.88 0 0 0 16.92,16.87 16.4,16.4 0 0 0 10.69,-3.75 3.27,3.27 0 0 1 2,-0.79 h 0.46 a 3.52,3.52 0 0 1 2.39,1.4 z"
         id="path34"
         style="fill:#3651a5;fill-opacity:1;stroke:#3651a5;stroke-opacity:1" />
      <path
         class="cls-2"
         d="m 877.64,52.59 a 23.65,23.65 0 0 1 0,33.75 23.88,23.88 0 0 1 -40.73,-16.87 23.83,23.83 0 0 1 40.73,-16.88 z m -16.82,33.8 a 16.8,16.8 0 0 0 16.92,-16.92 17,17 0 0 0 -28.92,-12 17,17 0 0 0 0,24 16.3,16.3 0 0 0 12,4.92 z"
         id="path36"
         style="fill:#3651a5;fill-opacity:1;stroke:#3651a5;stroke-opacity:1" />
      <path
         class="cls-2"
         d="m 917.79,45.84 a 19.62,19.62 0 0 1 19.5,19.5 v 24.84 a 4,4 0 0 1 -0.19,1.36 2.4,2.4 0 0 1 -0.75,1 3.14,3.14 0 0 1 -2.53,1 3.2,3.2 0 0 1 -2.53,-1.08 3.57,3.57 0 0 1 -0.94,-2.35 V 65.34 a 12.05,12.05 0 0 0 -3.7,-9 12.52,12.52 0 0 0 -21.38,9 v 24.84 a 3,3 0 0 1 -1,2.39 3.28,3.28 0 0 1 -2.53,1 3.64,3.64 0 0 1 -1.27,-0.19 2.52,2.52 0 0 1 -1.08,-0.85 2.86,2.86 0 0 1 -1,-2.39 V 65.06 a 18.44,18.44 0 0 1 5.81,-13.55 18.63,18.63 0 0 1 13.64,-5.67 z"
         id="path38"
         style="fill:#3651a5;fill-opacity:1;stroke:#3651a5;stroke-opacity:1" />
    </g>
  </g>
</svg>
