<svg xmlns="http://www.w3.org/2000/svg" width="192" height="55.343" xmlns:v="https://vecta.io/nano"><g transform="matrix(.243811 0 0 .243811 -19.698041 33.993829)"><ellipse cx="474.54" cy="-69.713" rx="69.868" ry="69.714" fill="#3651a5"/><path d="M472.125-51.928c9.825 0 17.79-7.965 17.79-17.79s-7.965-17.79-17.79-17.79-17.79 7.965-17.79 17.79a17.78 17.78 0 0 0 17.79 17.79zm52.73-17.79a52.75 52.75 0 0 1-14.43 36.24 49 49 0 0 1 6.77 9.73 64.36 64.36 0 0 0 0-91.93 49 49 0 0 1-6.77 9.73 52.79 52.79 0 0 1 14.43 36.23zm-29.28-17.82l-.52-.66-.24-.3h0l-.75-.86-.06-.08h0l-.26-.28a28.92 28.92 0 0 0-1.1-1.12l-.06-.06h0l-.27-.25-1.57-1.36.49-.26a48.39 48.39 0 0 0 10.53-5.43v.06l.2.21.15.16.24.25.06.07.22.24c14.108 15.655 14.083 39.446-.06 55.07l-.22.25-.06.06-.28.3-.09.09-.24.26h0a48.15 48.15 0 0 0-11-5.61 5.38 5.38 0 0 0 .74-.69l.49-.43h0a21.21 21.21 0 0 0 .85-.8h.06 0l.26-.27.23-.23.06-.06h0l.26-.27h0l.26-.28.22-.25.05-.06h0l.31-.41h0l.25-.29q.36-.43.72-.9v-.07h0a29.44 29.44 0 0 0 .13-35.74zm-55.44 17.82a34.26 34.26 0 0 1 34.26-34.26 34.27 34.27 0 0 0 30.85-19.33c-22.932-13.185-51.709-10.327-71.6 7.11l-.31.27-.28.25-.35.32-.21.19-.39.36-.2.2-.4.37-.15.16-.42.41-.19.18-.36.36-.25.26-.32.33-.21.22-.35.37-.21.22-.34.38-.18.19-.39.44-.12.13c-20.537 23.301-20.592 58.224-.13 81.59l.33.38.18.2.38.42.15.17.39.41.16.18.42.44.11.1.44.46.15.15.42.41.18.18.41.4.14.13.45.43.14.12.46.43.11.1.52.47h0c19.887 17.578 48.776 20.5 71.78 7.26a34.28 34.28 0 0 0-30.81-19.29 34.26 34.26 0 0 1-34.26-34.27z" fill="#fff" fill-rule="evenodd"/><path d="M121.765 58.123v.1a3 3 0 0 1 .51 1 5.06 5.06 0 0 1 .14 1.31 2.6 2.6 0 0 1-1.36 2.34h.05a22.76 22.76 0 0 1-15 5.34 23.76 23.76 0 0 1-23.81-23.82 22.82 22.82 0 0 1 7-16.83 23.77 23.77 0 0 1 24.75-5.62 24.41 24.41 0 0 1 6.94 3.79 4.25 4.25 0 0 1 1 1.08 3.89 3.89 0 0 1 .47 1.55 4 4 0 0 1-.23 1.26 5.55 5.55 0 0 1-.56 1.18 4 4 0 0 1-.94.79 3.12 3.12 0 0 1-1.27.38h-.47a3.58 3.58 0 0 1-2.11-.75 19 19 0 0 0-5.06-2.77 16.9 16.9 0 0 0-22.45 15.94 16.88 16.88 0 0 0 16.92 16.87 16.4 16.4 0 0 0 10.69-3.75 3.24 3.24 0 0 1 2-.79h.47a3.54 3.54 0 0 1 2.39 1.4zm52.73-37.64a3.11 3.11 0 0 1 2.49 1.08 3.71 3.71 0 0 1 1 2.39v24.88a18.5 18.5 0 0 1-5.86 13.78 20.05 20.05 0 0 1-32.34-6 18.43 18.43 0 0 1-1.55-7.41v-25.25a3.14 3.14 0 0 1 1-2.39 3.48 3.48 0 0 1 2.49-1.08 3.25 3.25 0 0 1 2.58 1.13 2.57 2.57 0 0 1 .09.28 3.13 3.13 0 0 1 .52 1 4.86 4.86 0 0 1 .14 1.13v24.87a11.87 11.87 0 0 0 3.84 8.86 12.78 12.78 0 0 0 9.14 3.75 13 13 0 0 0 4.92-.94 14.15 14.15 0 0 0 4.27-2.81 12 12 0 0 0 3.75-8.86v-24.84a3.3 3.3 0 0 1 1-2.4 3.46 3.46 0 0 1 2.44-1.07zm37.82.05c10.877.098 19.664 8.903 19.74 19.78a3.61 3.61 0 0 1-3.56 3.42 3.75 3.75 0 0 1-2.39-.84 4.17 4.17 0 0 1-1-2.58 12.43 12.43 0 0 0-3.8-9.14 13 13 0 0 0-4.12-2.77 13.14 13.14 0 0 0-4.92-.93 12.27 12.27 0 0 0-9 3.7 12.47 12.47 0 0 0-3.8 9.14v25.08a3.33 3.33 0 0 1-.97 2.44 3.75 3.75 0 0 1-2.44 1 3.33 3.33 0 0 1-2.56-1 4.47 4.47 0 0 1-.7-1.13 3.31 3.31 0 0 1-.28-1.36v-25.4a18.77 18.77 0 0 1 5.9-13.79 19.35 19.35 0 0 1 13.88-5.71zm53.98 0c10.873.103 19.654 8.907 19.73 19.78a3.61 3.61 0 0 1-3.53 3.42 3.73 3.73 0 0 1-2.39-.84 4.12 4.12 0 0 1-1-2.58 12.46 12.46 0 0 0-3.79-9.14 12.44 12.44 0 0 0-9.05-3.7 12.31 12.31 0 0 0-9.05 3.7 12.46 12.46 0 0 0-3.79 9.14v25.08a3.34 3.34 0 0 1-1 2.48 3.74 3.74 0 0 1-2.43 1 3.35 3.35 0 0 1-2.5-1.04 4.78 4.78 0 0 1-.7-1.13 3.31 3.31 0 0 1-.28-1.36v-25.4a18.74 18.74 0 0 1 5.91-13.79 19.33 19.33 0 0 1 13.87-5.71zm82.14 23.39v.42a1.46 1.46 0 0 1-.14.56h.05a3.15 3.15 0 0 1-3.33 2.53h-37.17a16.24 16.24 0 0 0 1.64 5 17.74 17.74 0 0 0 3.33 4.26 16.72 16.72 0 0 0 15.8 4.27 20.81 20.81 0 0 0 3.79-1.41h0a17.33 17.33 0 0 0 3.32-2.25 15.77 15.77 0 0 0 2.77-3.16 3.88 3.88 0 0 1 2.39-1.41h.52a3.63 3.63 0 0 1 1.92.57 3.19 3.19 0 0 1 1.54 2.25 1.13 1.13 0 0 1 .1.32v.38a3.45 3.45 0 0 1-.66 2 23.62 23.62 0 0 1-3.81 4.19 25.28 25.28 0 0 1-4.74 3.23 23.75 23.75 0 0 1-11.11 2.77 23.93 23.93 0 0 1-23.95-24v-.61a22.56 22.56 0 0 1 7.26-16.55c9.326-9 24.104-9 33.43 0a24.4 24.4 0 0 1 5.25 7.6 22.57 22.57 0 0 1 1.86 9.09v.09zm-7.36-3.33a16.78 16.78 0 0 0-2-4.64 18.41 18.41 0 0 0-3.1-3.94 16 16 0 0 0-5.3-3.18 17.24 17.24 0 0 0-6.18-1.18 16.76 16.76 0 0 0-11.44 4.5h0a16.89 16.89 0 0 0-5.06 8.58h33.05zm39.78-19.92c10.742.066 19.434 8.758 19.5 19.5v24.84a4 4 0 0 1-.19 1.36 2.48 2.48 0 0 1-.75 1 3.14 3.14 0 0 1-2.53 1 3.2 3.2 0 0 1-2.53-1.08 3.57 3.57 0 0 1-.94-2.35v-24.77a12.05 12.05 0 0 0-3.7-9 12.52 12.52 0 0 0-21.38 9v24.84a3 3 0 0 1-1 2.39 3.28 3.28 0 0 1-2.54 1 3.59 3.59 0 0 1-1.26-.19 2.47 2.47 0 0 1-1.08-.85 2.83 2.83 0 0 1-1-2.39v-25.08c.206-10.618 8.83-19.141 19.45-19.22zm72.64 37.45v.1a3 3 0 0 1 .51 1 5.06 5.06 0 0 1 .14 1.31 2.6 2.6 0 0 1-1.36 2.34h.05a22.76 22.76 0 0 1-15 5.34 23.76 23.76 0 0 1-23.86-23.81 22.82 22.82 0 0 1 7-16.83 23.77 23.77 0 0 1 24.75-5.62 24.41 24.41 0 0 1 6.94 3.79 4.25 4.25 0 0 1 1 1.08 3.89 3.89 0 0 1 .47 1.55 4 4 0 0 1-.23 1.26 5.55 5.55 0 0 1-.56 1.18 3.84 3.84 0 0 1-.94.79 3.12 3.12 0 0 1-1.27.38h-.47a3.53 3.53 0 0 1-2.1-.75 19.23 19.23 0 0 0-5.07-2.78 16.9 16.9 0 0 0-22.45 15.94 16.88 16.88 0 0 0 16.92 16.87 16.4 16.4 0 0 0 10.69-3.75 3.26 3.26 0 0 1 2-.79h.47a3.54 3.54 0 0 1 2.39 1.4zm62-35.2a3.15 3.15 0 0 1 .24 1.22 1.7 1.7 0 0 1 0 .61 2.18 2.18 0 0 0-.14.33.71.71 0 0 0-.14.28 1 1 0 0 1-.14.28l-29 58.45a3.83 3.83 0 0 1-1.31 1.41 3.49 3.49 0 0 1-3.38.23 3 3 0 0 1-1.17-.93 5.75 5.75 0 0 1-.7-1.27 7.39 7.39 0 0 1-.09-1.13 3.78 3.78 0 0 1 .37-1.54l6.61-13.27-7.45-16.83-5.72-12.79-5.67-12.75v-.28a3.47 3.47 0 0 1-.1-.71v-.56a.16.16 0 0 1 .05-.14 3.83 3.83 0 0 1 2.06-2.63 4.39 4.39 0 0 1 1.41-.28.45.45 0 0 1 .23.05 3.94 3.94 0 0 0 .38.14c0 .05.19.05.42.05a4.31 4.31 0 0 1 1.22.84 5.59 5.59 0 0 1 .84 1.08l3.85 8.58 3.61 8.06 2.2 4.88 2.11 4.78 2.2 5 2.44 5.39 6.14-12.43 6.23-12.51 2.91-5.91 3-6.09a3.59 3.59 0 0 1 .84-1.13 4.13 4.13 0 0 1 1.27-.7h-.05a2.72 2.72 0 0 1 .61-.19 3.39 3.39 0 0 1 .61 0 5.63 5.63 0 0 1 .8 0 3.08 3.08 0 0 1 .84.28 4.22 4.22 0 0 1 1.74 2v-.05zm35.76-2.81a24.17 24.17 0 0 1 24.24 24.14c-.038 13.344-10.846 24.152-24.19 24.19a23.53 23.53 0 0 1-17-7.13 23 23 0 0 1-7.07-17v-39.3a4.47 4.47 0 0 1 .14-1.26 2.34 2.34 0 0 1 .42-.85 4.35 4.35 0 0 1 3-1.4 4.24 4.24 0 0 1 2.81 1.4 1.92 1.92 0 0 1 .52.85 4.87 4.87 0 0 1 .14 1.26v22.36a22.34 22.34 0 0 1 2.25-2 26.76 26.76 0 0 1 2.39-1.68 26 26 0 0 1 6-2.53 22.73 22.73 0 0 1 6.37-.89zm0 41.48a16.7 16.7 0 0 0 12.24-5c6.628-6.721 6.628-17.519 0-24.24a16.9 16.9 0 0 0-12.24-5.06 17 17 0 0 0-17 17.11 17 17 0 0 0 17 17.16zm86.09-17.67v.42a1.67 1.67 0 0 1-.14.56h0a3.15 3.15 0 0 1-3.33 2.53h-37.13a16.51 16.51 0 0 0 1.64 5 17.74 17.74 0 0 0 3.33 4.26 16.33 16.33 0 0 0 11.72 4.78 16.17 16.17 0 0 0 4.08-.51 21.18 21.18 0 0 0 3.8-1.41h-.05a17.4 17.4 0 0 0 3.33-2.25 15.72 15.72 0 0 0 2.76-3.09 3.88 3.88 0 0 1 2.39-1.41h.52a3.63 3.63 0 0 1 1.92.57 3.23 3.23 0 0 1 1.55 2.25 1.45 1.45 0 0 1 .09.32v.38a3.38 3.38 0 0 1-.66 2 23.24 23.24 0 0 1-3.79 4.22 25.28 25.28 0 0 1-4.74 3.23 23.75 23.75 0 0 1-11.14 2.67c-13.235-.028-23.95-10.765-23.95-24v-.61a22.53 22.53 0 0 1 7.27-16.55c9.323-8.999 24.097-8.999 33.42 0a24.23 24.23 0 0 1 5.26 7.55 22.41 22.41 0 0 1 1.92 9.14v.09zm-7.36-3.33a16.81 16.81 0 0 0-2-4.64 18.41 18.41 0 0 0-3.1-3.94 16 16 0 0 0-5.31-3.18 17.24 17.24 0 0 0-6.19-1.13 16.71 16.71 0 0 0-11.43 4.5h0a16.84 16.84 0 0 0-5.07 8.58h33.05zm67.75 24.38a3.45 3.45 0 0 1-3.42 3.47 3.81 3.81 0 0 1-2.58-.94 3.74 3.74 0 0 1-.93-2.53v-3.61l-2.25 1.92-2.25 1.59a23.76 23.76 0 0 1-5.91 2.68 23.94 23.94 0 0 1-30.42-23 23.12 23.12 0 0 1 7-16.88 23.94 23.94 0 0 1 33.89 0 23.13 23.13 0 0 1 7 16.88v20.51zm-11.81-8.44a16.28 16.28 0 0 0 5-12 16.76 16.76 0 0 0-5-12.1 16.41 16.41 0 0 0-12-4.92 16.2 16.2 0 0 0-12 4.92 16.63 16.63 0 0 0-5 12.05c0 9.389 7.611 17 17 17a16.26 16.26 0 0 0 12-4.95zm64.85 1.59v.1a3 3 0 0 1 .51 1 5.06 5.06 0 0 1 .14 1.31 2.6 2.6 0 0 1-1.36 2.34h0a22.76 22.76 0 0 1-15 5.34 23.76 23.76 0 0 1-23.86-23.81 22.82 22.82 0 0 1 7-16.83 23.77 23.77 0 0 1 24.75-5.62 24.41 24.41 0 0 1 6.94 3.79 4.5 4.5 0 0 1 1 1.08 4.07 4.07 0 0 1 .46 1.55 4 4 0 0 1-.23 1.26 5.55 5.55 0 0 1-.56 1.18 3.84 3.84 0 0 1-.94.79 3.12 3.12 0 0 1-1.27.38h-.46a3.54 3.54 0 0 1-2.11-.75 19.23 19.23 0 0 0-5.07-2.77 16.9 16.9 0 0 0-22.45 15.94 16.88 16.88 0 0 0 16.92 16.87 16.4 16.4 0 0 0 10.69-3.75 3.27 3.27 0 0 1 2-.79h.46a3.52 3.52 0 0 1 2.39 1.4zm56.36-30.7a23.65 23.65 0 0 1 0 33.75 23.88 23.88 0 0 1-40.73-16.87 23.83 23.83 0 0 1 40.73-16.88zm-16.82 33.8a16.8 16.8 0 0 0 16.92-16.92 17 17 0 0 0-28.92-12c-6.611 6.634-6.611 17.366 0 24a16.3 16.3 0 0 0 12 4.92zm56.97-40.55c10.742.066 19.434 8.758 19.5 19.5v24.84a4 4 0 0 1-.19 1.36 2.4 2.4 0 0 1-.75 1 3.14 3.14 0 0 1-2.53 1 3.2 3.2 0 0 1-2.53-1.08 3.57 3.57 0 0 1-.94-2.35v-24.77a12.05 12.05 0 0 0-3.7-9 12.52 12.52 0 0 0-21.38 9v24.84a3 3 0 0 1-1 2.39 3.28 3.28 0 0 1-2.53 1 3.64 3.64 0 0 1-1.27-.19 2.52 2.52 0 0 1-1.08-.85 2.86 2.86 0 0 1-1-2.39v-25.08a18.44 18.44 0 0 1 5.81-13.55 18.63 18.63 0 0 1 13.64-5.67z" fill="#3651a5" stroke="#3651a5" stroke-miterlimit="10" stroke-width="3"/></g></svg>