<svg xmlns="http://www.w3.org/2000/svg" width="32" height="32" fill-rule="evenodd" xmlns:v="https://vecta.io/nano"><path d="M28.147 11.332c-.512-.012-.758.074-.759.519V22.55c-.152 1.937-.662 3.671-1.657 5.137-.69 1.018-1.511 1.76-2.419 2.321-1.614.994-3.94 1.556-5.819 1.861-.812.131-1.571.193-1.923.052-.166-.066-.278-.165-.331-.298-.295-.736.718-1.513 1.203-1.928 2.308-1.973 3.262-4.841 3.442-8.222v-9.781c-.061-.35-.319-.474-.719-.439H16.41c-.915-.02-1.227-.482-.918-1.397l6.609-8.422.65-.828.166-.212c.609-.677 1.163-.399 1.642.209l.506.643 6.352 8.07c.776.985.983 2.017-.688 2.017zM3.853 20.668c.512.012.758-.074.759-.519V9.45c.152-1.937.662-3.671 1.657-5.137.69-1.018 1.511-1.76 2.419-2.321 1.613-.994 3.94-1.555 5.819-1.86.812-.131 1.571-.192 1.923-.052.166.066.278.165.331.298.295.736-.718 1.513-1.203 1.928-2.308 1.973-3.262 4.841-3.442 8.222v9.781c.061.35.319.474.719.439h2.754c.915.02 1.227.482.918 1.397l-6.609 8.422-.65.828-.166.212c-.609.677-1.163.399-1.642-.209l-.506-.643-6.352-8.07c-.776-.985-.983-2.017.688-2.017z"/></svg>