<svg xmlns="http://www.w3.org/2000/svg" width="64" height="64" xmlns:v="https://vecta.io/nano"><path d="M32 57.594a25.594 25.594 0 1 1 0-51.187 25.594 25.594 0 1 1 0 51.188zM32 .5a31.5 31.5 0 1 0 0 63 31.5 31.5 0 1 0 0-63zm14.876 36.25c.554-.517.874-1.243.874-2.006 0-1.513-1.23-2.744-2.744-2.744h-7.1V20.188c0-2.178-1.76-3.937-3.937-3.937h-3.937c-2.178 0-3.937 1.76-3.937 3.938V32h-7.1c-1.513 0-2.744 1.23-2.744 2.744 0 .763.32 1.489.874 2.006l13.178 12.292a2.51 2.51 0 0 0 1.698.677 2.49 2.49 0 0 0 1.698-.677z" fill="#3f3f8c" stroke="#000"/></svg>