<svg xmlns="http://www.w3.org/2000/svg" width="32" height="32" xmlns:v="https://vecta.io/nano"><path d="M4.571 0C2.05 0 0 2.05 0 4.571v22.857C0 29.95 2.05 32 4.571 32h22.857C29.95 32 32 29.95 32 27.429V10.093c0-1.214-.479-2.379-1.336-3.236l-5.521-5.521C24.286.479 23.121 0 21.907 0zm0 6.857c0-1.264 1.021-2.286 2.286-2.286h13.714c1.264 0 2.286 1.021 2.286 2.286v4.571c0 1.264-1.021 2.286-2.286 2.286H6.857c-1.264 0-2.286-1.021-2.286-2.286zM16 18.286a4.571 4.571 0 1 1 0 9.143 4.571 4.571 0 1 1 0-9.143z"/></svg>