<svg xmlns="http://www.w3.org/2000/svg" width="64" height="64" xmlns:v="https://vecta.io/nano"><path d="M57.594 32a25.594 25.594 0 1 0-51.187 0 25.594 25.594 0 1 0 51.188 0zM.5 32a31.5 31.5 0 1 1 63 0 31.5 31.5 0 1 1-63 0zm27.563-8.859V40.86c0 1.637-1.317 2.953-2.953 2.953s-2.953-1.317-2.953-2.953V23.141c0-1.637 1.317-2.953 2.953-2.953s2.953 1.317 2.953 2.953zm13.781 0V40.86c0 1.637-1.317 2.953-2.953 2.953s-2.953-1.317-2.953-2.953V23.141c0-1.637 1.317-2.953 2.953-2.953s2.953 1.317 2.953 2.953z" fill="#9c8f44" stroke="#000"/></svg>