<svg xmlns="http://www.w3.org/2000/svg" width="32" height="32" xmlns:v="https://vecta.io/nano"><path d="M25.676 14.455l.707-.707-2.121-2.121-3.886-3.885-2.121-2.121-.707.707-1.414 1.414L3.667 20.205a5.55 5.55 0 0 0-1.389 2.34L.062 30.077c-.156.526-.012 1.095.382 1.483s.957.532 1.483.382l7.528-2.215a5.55 5.55 0 0 0 2.341-1.389l12.466-12.463zM10.012 24.991l-.569 1.42a2.64 2.64 0 0 1-.832.432l-4.894 1.439 1.439-4.886a2.4 2.4 0 0 1 .432-.832l1.421-.569v2.002c0 .551.451 1.001 1.001 1.001h2.003zM22.697 1.173l-.901.907-1.414 1.414-.713.707 2.121 2.121 3.886 3.885 2.121 2.121.707-.707 1.414-1.414.907-.907c1.565-1.564 1.565-4.098 0-5.662l-2.459-2.465c-1.565-1.564-4.099-1.564-5.664 0zm-2.966 10.511l-9.012 9.009c-.388.388-1.026.388-1.414 0s-.388-1.026 0-1.414l9.012-9.009c.388-.388 1.026-.388 1.414 0s.388 1.026 0 1.414z"/></svg>