<svg xmlns="http://www.w3.org/2000/svg" width="32" height="32" xmlns:v="https://vecta.io/nano"><path d="M9.657 1.106C10.043.425 10.836 0 11.7 0h8.6c.864 0 1.657.425 2.043 1.106l.514.894h6.857C30.979 2 32 2.894 32 4s-1.021 2-2.286 2H2.286C1.021 6 0 5.106 0 4s1.021-2 2.286-2h6.857zM2.286 8h27.429v20c0 2.206-2.05 4-4.571 4H6.857c-2.521 0-4.571-1.794-4.571-4zm6.857 4C8.514 12 8 12.45 8 13v14c0 .55.514 1 1.143 1s1.143-.45 1.143-1V13c0-.55-.514-1-1.143-1zM16 12c-.629 0-1.143.45-1.143 1v14c0 .55.514 1 1.143 1s1.143-.45 1.143-1V13c0-.55-.514-1-1.143-1zm6.857 0c-.629 0-1.143.45-1.143 1v14c0 .55.514 1 1.143 1S24 27.55 24 27V13c0-.55-.514-1-1.143-1z"/></svg>