<svg xmlns="http://www.w3.org/2000/svg" width="22.971" height="23" xmlns:v="https://vecta.io/nano"><linearGradient id="A" gradientUnits="userSpaceOnUse" x1="498.781" y1="-218.699" x2="1666.593" y2="1367.283"><stop offset="0" stop-color="#41d1ff"/><stop offset="1" stop-color="#bd34fe"/></linearGradient><linearGradient id="B" gradientUnits="userSpaceOnUse" x1="1049.466" y1="22.278" x2="1260.718" y2="1471.441"><stop offset="0" stop-color="#ffea83"/><stop offset=".083" stop-color="#ffdd35"/><stop offset="1" stop-color="#ffa800"/></linearGradient><g transform="matrix(.0115 0 0 .0115 -.000098 -.00014)"><path d="M1990.9 296l-938.3 1677.9c-19.4 34.6-69.1 34.8-88.8.4L6.8 296.2c-21.4-37.6 10.7-83.1 53.3-75.5l939.3 167.9a50.05 50.05 0 0 0 18.1 0L1937.2 221c42.4-7.8 74.7 37.4 53.7 75z" fill="url(#A)"/><path d="M1446.9.5L752.5 136.6c-11.4 2.2-19.9 11.9-20.6 23.5l-42.7 721.4c-1 17 14.6 30.2 31.2 26.4l193.3-44.6c18.1-4.2 34.4 11.8 30.7 30L887 1174.4c-3.9 18.9 13.9 35.1 32.4 29.5l119.4-36.3c18.5-5.6 36.3 10.6 32.4 29.6L979.9 1639c-5.7 27.6 31 42.7 46.4 19l10.2-15.8L1602.4 513c9.5-18.9-6.9-40.5-27.6-36.5l-199 38.4c-18.7 3.6-34.6-13.8-29.3-32.1l129.9-450.3c5.2-18.2-10.8-35.7-29.5-32z" fill="url(#B)"/></g></svg>